<?xml version="1.0" encoding="utf-8"?>
<!-- Generator: Adobe Illustrator 15.1.0, SVG Export Plug-In . SVG Version: 6.00 Build 0)  -->
<!DOCTYPE svg PUBLIC "-//W3C//DTD SVG 1.1//EN" "http://www.w3.org/Graphics/SVG/1.1/DTD/svg11.dtd">
<svg version="1.1" id="Layer_1" xmlns="http://www.w3.org/2000/svg" xmlns:xlink="http://www.w3.org/1999/xlink" x="0px" y="0px"
	 width="226.953px" height="45.81px" viewBox="0 0 226.953 45.81" enable-background="new 0 0 226.953 45.81" xml:space="preserve">
<rect x="0" fill="#49BDB2" width="113.476" height="45.81"/>
<g>
	<path fill="#333333" d="M5.07,18.193c2.203-2.437,4.795-5.857,4.795-8.449c0-1.322-0.675-2.385-1.996-2.385
		c-1.011,0-1.944,0.596-2.566,1.192V3.887c1.295-0.518,2.644-1.036,4.509-1.036c3.681,0,5.288,2.772,5.288,5.572
		c0,3.447-2.022,6.143-3.914,8.527h4.25v4.665H5.07V18.193z"/>
	<path fill="#333333" d="M23.186,21.926c-3.811,0-6.894-3.214-6.894-9.589c0-7.076,3.81-9.486,6.894-9.486
		c3.084,0,6.894,2.41,6.894,9.486C30.08,18.711,26.996,21.926,23.186,21.926z M23.186,17.261c1.841,0,1.971-2.773,1.971-4.847
		c0-2.255-0.337-4.64-1.971-4.64c-1.788,0-1.97,2.384-1.97,4.64C21.216,14.487,21.346,17.261,23.186,17.261z"/>
	<path fill="#333333" d="M31.997,7.8h-1.555V4.223h0.752c1.088,0,2.099-0.415,2.748-1.063h2.851v18.454h-4.795V7.8z"/>
	<path fill="#333333" d="M39.176,3.161h9.227V7.67h-4.562v2.748c0.259-0.051,0.571-0.103,1.037-0.103
		c2.021,0,4.587,1.373,4.587,5.158c0,3.862-2.566,6.453-6.635,6.453c-1.425,0-2.825-0.389-3.965-0.984v-4.303
		c0.881,0.623,1.633,0.985,2.669,0.985c1.607,0,2.695-0.804,2.695-2.255c0-1.452-1.166-2.1-2.565-2.1
		c-0.933,0-1.893,0.389-2.487,0.83L39.176,3.161L39.176,3.161z"/>
	<path fill="#333333" d="M55.918,15.653c0.777,0.622,2.281,1.607,3.81,1.607c1.296,0,2.021-0.441,2.021-1.296
		c0-2.254-6.22-1.296-6.22-7.438c0-2.617,1.71-5.676,6.635-5.676c1.658,0,3.551,0.518,4.121,0.958v4.976
		c-1.037-0.778-2.151-1.27-3.214-1.27c-1.114,0-2.099,0.441-2.099,1.348c0,2.332,6.219,1.011,6.219,7.076
		c0,2.722-1.736,5.987-6.92,5.987c-1.97,0-3.343-0.44-4.354-1.011L55.918,15.653L55.918,15.653z"/>
	<path fill="#333333" d="M71.469,3.161h7.62l3.602,18.454h-5.132l-0.466-3.111h-3.628l-0.466,3.111h-5.132L71.469,3.161z
		 M75.304,6.738h-0.052l-1.167,7.62h2.385L75.304,6.738z"/>
	<path fill="#333333" d="M86.344,3.161h7.619l3.604,18.454h-5.133l-0.466-3.111h-3.629l-0.465,3.111h-5.132L86.344,3.161z
		 M90.18,6.738h-0.053l-1.166,7.62h2.385L90.18,6.738z"/>
	<path fill="#333333" d="M98.603,3.161h4.924v13.944h4.302v4.51h-9.227L98.603,3.161L98.603,3.161z"/>
</g>
<g>
	<path fill="#333333" d="M5.511,23.864h7.128c4.017,0,5.727,2.333,5.727,4.899c0,1.892-1.037,3.239-2.722,3.783v0.052
		c1.582,0.389,3.214,1.581,3.214,4.354c0,2.643-1.918,5.365-6.402,5.365H5.511V23.864z M10.435,31.069h1.374
		c1.218,0,1.762-0.622,1.762-1.503c0-1.166-0.777-1.555-2.281-1.555h-0.855V31.069z M10.435,38.015h1.633
		c1.167,0,1.71-0.725,1.71-1.71c0-1.191-0.622-1.659-1.995-1.659h-1.348L10.435,38.015L10.435,38.015z"/>
	<path fill="#333333" d="M20.179,23.864h4.923v18.454h-4.923V23.864z"/>
	<path fill="#333333" d="M26.917,23.864h9.357v4.303h-4.433v2.643h3.888v4.303h-3.888v2.901h4.484v4.302h-9.408L26.917,23.864
		L26.917,23.864z"/>
	<path fill="#333333" d="M37.854,23.864h5.625l3.629,11.845h0.052V23.864h4.51v18.454h-5.625L42.415,30.5h-0.052v11.818h-4.511
		L37.854,23.864L37.854,23.864z"/>
	<path fill="#333333" d="M53.56,23.864h5.625l3.628,11.845h0.052V23.864h4.511v18.454h-5.624L58.122,30.5H58.07v11.818h-4.51V23.864
		z"/>
	<path fill="#333333" d="M71.883,23.864h7.62l3.603,18.454h-5.131l-0.466-3.11h-3.629l-0.466,3.11h-5.131L71.883,23.864z
		 M75.719,27.44h-0.052l-1.166,7.62h2.383L75.719,27.44z"/>
	<path fill="#333333" d="M86.655,23.864h7.62l3.603,18.454h-5.132l-0.467-3.11h-3.628l-0.466,3.11h-5.131L86.655,23.864z
		 M90.491,27.44h-0.052l-1.166,7.621h2.384L90.491,27.44z"/>
	<path fill="#333333" d="M98.81,23.864h4.924v13.943h4.303v4.51h-9.228L98.81,23.864L98.81,23.864z"/>
</g>
<rect x="113.476" fill="#333333" width="113.477" height="45.81"/>
<g>
	<path fill="#49BDB2" d="M119.611,7.685h-1.555V4.108h0.751c1.087,0,2.1-0.415,2.746-1.062h2.853V21.5h-4.795V7.685z"/>
	<path fill="#49BDB2" d="M137.001,3.045v2.98L131.793,21.5h-5.107l5.133-13.944h-5.055v-4.51H137.001z"/>
	<path fill="#49BDB2" d="M137.443,16.575c1.348,0,2.462,1.114,2.462,2.462c0,1.348-1.114,2.462-2.462,2.462
		c-1.349,0-2.463-1.114-2.463-2.462C134.98,17.689,136.094,16.575,137.443,16.575z"/>
	<path fill="#49BDB2" d="M140.267,12.298h12.959v3.733h-12.959V12.298z"/>
	<path fill="#49BDB2" d="M150.141,12.298H163.1v3.733h-12.959V12.298z"/>
	<path fill="#49BDB2" d="M165.07,16.341c0.596,0.441,1.477,0.958,2.696,0.958c1.271,0,2.384-0.647,2.384-1.84
		c0-1.425-1.529-1.737-2.722-1.737c-0.389,0-0.803,0.027-1.218,0.078v-3.292c0.286,0.077,0.596,0.104,0.958,0.104
		c0.855,0,2.696-0.337,2.696-1.866c0-0.83-0.57-1.503-1.711-1.503c-1.114,0-2.1,0.414-2.955,1.037V3.874
		c1.087-0.57,2.799-1.141,4.561-1.141c2.643,0,5.029,1.582,5.029,4.899c0,1.814-0.622,3.318-2.514,4.38
		c2.203,1.063,2.955,2.437,2.955,4.251c0,3.006-2.358,5.546-5.988,5.546c-1.502,0-3.084-0.518-4.171-1.036L165.07,16.341
		L165.07,16.341z"/>
	<path fill="#49BDB2" d="M182.331,21.81c-3.81,0-6.894-3.214-6.894-9.589c0-7.076,3.81-9.487,6.894-9.487
		c3.084,0,6.894,2.411,6.894,9.487C189.225,18.596,186.141,21.81,182.331,21.81z M182.331,17.145c1.84,0,1.969-2.773,1.969-4.847
		c0-2.254-0.335-4.64-1.969-4.64c-1.789,0-1.97,2.385-1.97,4.64C180.361,14.372,180.49,17.145,182.331,17.145z"/>
	<path fill="#49BDB2" d="M191.79,16.575c1.348,0,2.463,1.114,2.463,2.462c0,1.348-1.114,2.462-2.463,2.462
		c-1.347,0-2.462-1.114-2.462-2.462C189.328,17.689,190.443,16.575,191.79,16.575z"/>
	<path fill="#49BDB2" d="M200.731,21.81c-3.81,0-6.894-3.214-6.894-9.589c0-7.076,3.81-9.487,6.894-9.487
		c3.085,0,6.895,2.411,6.895,9.487C207.625,18.596,204.541,21.81,200.731,21.81z M200.731,17.145c1.841,0,1.971-2.773,1.971-4.847
		c0-2.254-0.337-4.64-1.971-4.64c-1.789,0-1.97,2.385-1.97,4.64C198.761,14.372,198.891,17.145,200.731,17.145z"/>
	<path fill="#49BDB2" d="M215.089,2.734c4.225,0,6.532,1.996,6.532,5.159c0,1.659-0.622,3.317-2.981,4.042v0.053
		c2.333,0.389,3.162,2.411,3.162,4.38c0,2.695-1.763,5.442-6.712,5.442s-6.712-2.747-6.712-5.442c0-1.97,0.829-3.991,3.162-4.38
		v-0.053c-2.358-0.725-2.981-2.383-2.981-4.042C208.557,4.73,210.865,2.734,215.089,2.734z M215.089,13.723
		c-1.27,0-1.788,0.934-1.788,2.022c0,0.984,0.465,1.917,1.788,1.917s1.789-0.933,1.789-1.917
		C216.878,14.657,216.358,13.723,215.089,13.723z M215.089,10.613c0.984,0,1.735-0.7,1.735-1.995c0-0.855-0.518-1.736-1.735-1.736
		c-1.27,0-1.736,0.881-1.736,1.736C213.352,9.914,214.104,10.613,215.089,10.613z"/>
</g>
<g>
	<path fill="#49BDB2" d="M118.549,38.781c2.204-2.437,4.794-5.858,4.794-8.451c0-1.322-0.674-2.384-1.994-2.384
		c-1.011,0-1.945,0.596-2.567,1.193v-4.665c1.296-0.519,2.643-1.037,4.511-1.037c3.68,0,5.288,2.773,5.288,5.572
		c0,3.448-2.022,6.143-3.913,8.527h4.25v4.666H118.55L118.549,38.781L118.549,38.781z"/>
	<path fill="#49BDB2" d="M136.665,42.513c-3.811,0-6.895-3.214-6.895-9.589c0-7.076,3.81-9.486,6.895-9.486
		c3.085,0,6.895,2.41,6.895,9.486C143.56,39.299,140.475,42.513,136.665,42.513z M136.665,37.848c1.84,0,1.97-2.773,1.97-4.847
		c0-2.254-0.336-4.64-1.97-4.64c-1.789,0-1.971,2.386-1.971,4.64C134.695,35.075,134.824,37.848,136.665,37.848z"/>
	<path fill="#49BDB2" d="M145.477,28.388h-1.556v-3.577h0.752c1.087,0,2.099-0.414,2.746-1.062h2.852v18.454h-4.794V28.388z"/>
	<path fill="#49BDB2" d="M152.656,23.748h9.228v4.51h-4.562v2.747c0.259-0.053,0.57-0.104,1.037-0.104
		c2.021,0,4.587,1.373,4.587,5.158c0,3.863-2.566,6.453-6.635,6.453c-1.425,0-2.825-0.389-3.966-0.984v-4.303
		c0.881,0.622,1.633,0.985,2.669,0.985c1.606,0,2.696-0.804,2.696-2.254c0-1.452-1.166-2.1-2.566-2.1
		c-0.934,0-1.892,0.389-2.488,0.829L152.656,23.748L152.656,23.748z"/>
</g>
<g>
	<path fill="#49BDB2" d="M169.345,36.241c0.778,0.622,2.281,1.606,3.811,1.606c1.295,0,2.021-0.441,2.021-1.296
		c0-2.254-6.22-1.296-6.22-7.438c0-2.618,1.711-5.676,6.635-5.676c1.659,0,3.55,0.519,4.122,0.959v4.976
		c-1.038-0.778-2.151-1.27-3.215-1.27c-1.114,0-2.099,0.441-2.099,1.348c0,2.332,6.22,1.01,6.22,7.076
		c0,2.722-1.736,5.987-6.921,5.987c-1.969,0-3.343-0.44-4.354-1.01L169.345,36.241L169.345,36.241z"/>
	<path fill="#49BDB2" d="M184.896,23.748h7.62l3.603,18.454h-5.132l-0.467-3.111h-3.628l-0.466,3.111h-5.132L184.896,23.748z
		 M188.732,27.325h-0.051l-1.167,7.621h2.383L188.732,27.325z"/>
	<path fill="#49BDB2" d="M199.772,23.748h7.619l3.603,18.454h-5.132l-0.466-3.111h-3.629l-0.466,3.111h-5.132L199.772,23.748z
		 M203.608,27.325h-0.053l-1.167,7.621h2.384L203.608,27.325z"/>
	<path fill="#49BDB2" d="M212.031,23.748h4.923v13.944h4.302v4.511h-9.227L212.031,23.748L212.031,23.748z"/>
</g>
</svg>
