<?xml version="1.0" encoding="utf-8"?>
<!-- Generator: Adobe Illustrator 15.1.0, SVG Export Plug-In . SVG Version: 6.00 Build 0)  -->
<!DOCTYPE svg PUBLIC "-//W3C//DTD SVG 1.1//EN" "http://www.w3.org/Graphics/SVG/1.1/DTD/svg11.dtd">
<svg version="1.1" id="Layer_1" xmlns="http://www.w3.org/2000/svg" xmlns:xlink="http://www.w3.org/1999/xlink" x="0px" y="0px"
	 width="439.043px" height="174.738px" viewBox="0 0 439.043 174.738" enable-background="new 0 0 439.043 174.738"
	 xml:space="preserve">
<rect fill="#49BDB2" width="219.522" height="116.72"/>
<path fill="#333333" d="M0,174.738h219.522v-87.09H0V174.738z"/>
<g>
	<path fill="#333333" d="M9.808,35.195c4.262-4.713,9.276-11.331,9.276-16.345c0-2.557-1.304-4.613-3.861-4.613
		c-1.956,0-3.761,1.153-4.964,2.307V7.519c2.507-1.002,5.114-2.005,8.724-2.005c7.12,0,10.229,5.365,10.229,10.78
		c0,6.668-3.911,11.883-7.571,16.496h8.223v9.024H9.808V35.195z"/>
	<path fill="#333333" d="M44.854,42.416c-7.371,0-13.337-6.217-13.337-18.551c0-13.688,7.37-18.351,13.337-18.351
		c5.966,0,13.337,4.663,13.337,18.351C58.19,36.198,52.224,42.416,44.854,42.416z M44.854,33.391c3.56,0,3.811-5.365,3.811-9.376
		c0-4.362-0.652-8.974-3.811-8.974c-3.459,0-3.811,4.612-3.811,8.974C41.042,28.025,41.294,33.391,44.854,33.391z"/>
	<path fill="#333333" d="M61.898,15.09h-3.008V8.17h1.454c2.105,0,4.061-0.802,5.315-2.056h5.515v35.699h-9.276V15.09z"/>
	<path fill="#333333" d="M75.786,6.115h17.849v8.724h-8.824v5.315c0.501-0.1,1.104-0.2,2.006-0.2c3.911,0,8.875,2.657,8.875,9.978
		c0,7.471-4.964,12.484-12.836,12.484c-2.757,0-5.465-0.752-7.671-1.905v-8.323c1.705,1.204,3.159,1.905,5.164,1.905
		c3.109,0,5.214-1.554,5.214-4.362c0-2.808-2.256-4.062-4.963-4.062c-1.805,0-3.661,0.752-4.813,1.605V6.115z"/>
	<path fill="#333333" d="M108.173,30.282c1.504,1.203,4.413,3.108,7.371,3.108c2.507,0,3.91-0.853,3.91-2.507
		c0-4.362-12.033-2.507-12.033-14.389c0-5.064,3.309-10.981,12.835-10.981c3.208,0,6.869,1.003,7.972,1.855v9.626
		c-2.006-1.504-4.162-2.457-6.217-2.457c-2.156,0-4.061,0.852-4.061,2.607c0,4.512,12.033,1.956,12.033,13.688
		c0,5.265-3.359,11.582-13.387,11.582c-3.811,0-6.468-0.852-8.424-1.956V30.282z"/>
	<path fill="#333333" d="M138.256,6.115h14.741l6.969,35.699h-9.928l-0.902-6.017h-7.019l-0.902,6.017h-9.928L138.256,6.115z
		 M145.677,13.034h-0.101l-2.256,14.741h4.613L145.677,13.034z"/>
	<path fill="#333333" d="M167.033,6.115h14.741l6.969,35.699h-9.928l-0.902-6.017h-7.02l-0.902,6.017h-9.927L167.033,6.115z
		 M174.454,13.034h-0.101l-2.256,14.741h4.613L174.454,13.034z"/>
	<path fill="#333333" d="M190.748,6.115h9.526V33.09h8.323v8.724h-17.849V6.115z"/>
</g>
<g>
	<path fill="#333333" d="M10.66,46.166h13.789c7.771,0,11.081,4.512,11.081,9.476c0,3.66-2.005,6.267-5.265,7.32v0.101
		c3.059,0.752,6.217,3.058,6.217,8.423c0,5.114-3.71,10.379-12.384,10.379H10.66V46.166z M20.187,60.104h2.658
		c2.356,0,3.409-1.203,3.409-2.908c0-2.256-1.504-3.008-4.412-3.008h-1.655V60.104z M20.187,73.541h3.159
		c2.256,0,3.309-1.404,3.309-3.309c0-2.306-1.204-3.209-3.861-3.209h-2.607V73.541z"/>
	<path fill="#333333" d="M39.037,46.166h9.526v35.699h-9.526V46.166z"/>
	<path fill="#333333" d="M52.072,46.166h18.1v8.323h-8.574v5.114h7.521v8.323h-7.521v5.615h8.674v8.323H52.072V46.166z"/>
	<path fill="#333333" d="M73.229,46.166h10.88l7.019,22.913h0.101V46.166h8.724v35.699h-10.88l-7.02-22.863h-0.101v22.863h-8.724
		V46.166z"/>
	<path fill="#333333" d="M103.612,46.166h10.88l7.019,22.913h0.1V46.166h8.725v35.699h-10.88l-7.019-22.863h-0.101v22.863h-8.724
		V46.166z"/>
	<path fill="#333333" d="M139.059,46.166h14.74l6.969,35.699h-9.927l-0.902-6.017h-7.02l-0.902,6.017h-9.927L139.059,46.166z
		 M146.479,53.084h-0.1l-2.256,14.741h4.612L146.479,53.084z"/>
	<path fill="#333333" d="M167.635,46.166h14.741l6.969,35.699h-9.928l-0.903-6.017h-7.019l-0.902,6.017h-9.927L167.635,46.166z
		 M175.056,53.084h-0.101L172.7,67.826h4.613L175.056,53.084z"/>
	<path fill="#333333" d="M191.149,46.166h9.526V73.14h8.323v8.724h-17.849V46.166z"/>
</g>
<g>
	<path fill="#49BDB2" d="M11.864,101.866H8.855v-6.918h1.454c2.106,0,4.061-0.802,5.314-2.056h5.516v35.7h-9.276V101.866z"/>
	<path fill="#49BDB2" d="M45.505,92.891v5.766l-10.078,29.934H25.55l9.927-26.975h-9.777v-8.725H45.505z"/>
	<path fill="#49BDB2" d="M46.357,119.064c2.607,0,4.763,2.155,4.763,4.762c0,2.608-2.156,4.764-4.763,4.764
		c-2.607,0-4.763-2.156-4.763-4.764C41.594,121.22,43.75,119.064,46.357,119.064z"/>
	<path fill="#49BDB2" d="M51.821,110.791h25.069v7.22H51.821V110.791z"/>
	<path fill="#49BDB2" d="M70.923,110.791h25.069v7.22H70.923V110.791z"/>
	<path fill="#49BDB2" d="M99.802,118.612c1.153,0.853,2.858,1.855,5.215,1.855c2.457,0,4.612-1.253,4.612-3.56
		c0-2.758-2.958-3.36-5.265-3.36c-0.752,0-1.554,0.051-2.356,0.151v-6.369c0.552,0.15,1.153,0.201,1.855,0.201
		c1.654,0,5.214-0.652,5.214-3.61c0-1.604-1.103-2.908-3.309-2.908c-2.156,0-4.062,0.801-5.716,2.006v-8.524
		c2.106-1.103,5.415-2.206,8.825-2.206c5.114,0,9.728,3.059,9.728,9.476c0,3.51-1.204,6.418-4.864,8.474
		c4.262,2.056,5.716,4.713,5.716,8.223c0,5.816-4.563,10.729-11.582,10.729c-2.908,0-5.967-1.002-8.073-2.005V118.612z"/>
	<path fill="#49BDB2" d="M133.193,129.191c-7.371,0-13.337-6.217-13.337-18.551c0-13.688,7.371-18.351,13.337-18.351
		c5.966,0,13.337,4.663,13.337,18.351C146.53,122.974,140.564,129.191,133.193,129.191z M133.193,120.167
		c3.56,0,3.811-5.365,3.811-9.376c0-4.362-0.652-8.976-3.811-8.976c-3.46,0-3.811,4.614-3.811,8.976
		C129.383,114.802,129.633,120.167,133.193,120.167z"/>
	<path fill="#49BDB2" d="M151.492,119.064c2.607,0,4.763,2.155,4.763,4.762c0,2.608-2.156,4.764-4.763,4.764
		s-4.763-2.156-4.763-4.764C146.729,121.22,148.885,119.064,151.492,119.064z"/>
	<path fill="#49BDB2" d="M168.789,129.191c-7.371,0-13.337-6.217-13.337-18.551c0-13.688,7.371-18.351,13.337-18.351
		s13.337,4.663,13.337,18.351C182.126,122.974,176.159,129.191,168.789,129.191z M168.789,120.167c3.56,0,3.811-5.365,3.811-9.376
		c0-4.362-0.652-8.976-3.811-8.976c-3.46,0-3.811,4.614-3.811,8.976C164.979,114.802,165.229,120.167,168.789,120.167z"/>
	<path fill="#49BDB2" d="M196.564,92.29c8.173,0,12.635,3.86,12.635,9.978c0,3.209-1.203,6.417-5.766,7.821v0.101
		c4.513,0.752,6.118,4.663,6.118,8.473c0,5.215-3.41,10.529-12.987,10.529c-9.576,0-12.985-5.314-12.985-10.529
		c0-3.811,1.605-7.721,6.117-8.473v-0.101c-4.562-1.404-5.766-4.612-5.766-7.821C183.93,96.15,188.393,92.29,196.564,92.29z
		 M196.564,113.548c-2.457,0-3.459,1.805-3.459,3.912c0,1.905,0.902,3.709,3.459,3.709c2.558,0,3.46-1.804,3.46-3.709
		C200.024,115.354,199.021,113.548,196.564,113.548z M196.564,107.532c1.906,0,3.36-1.354,3.36-3.86c0-1.656-1.003-3.36-3.36-3.36
		c-2.457,0-3.359,1.705-3.359,3.36C193.205,106.178,194.659,107.532,196.564,107.532z"/>
</g>
<g>
	<path fill="#49BDB2" d="M9.808,162.022c4.262-4.713,9.276-11.331,9.276-16.346c0-2.557-1.304-4.613-3.861-4.613
		c-1.956,0-3.761,1.154-4.964,2.308v-9.026c2.507-1.002,5.114-2.005,8.724-2.005c7.12,0,10.229,5.365,10.229,10.779
		c0,6.669-3.911,11.883-7.571,16.495h8.223v9.026H9.808V162.022z"/>
	<path fill="#49BDB2" d="M44.854,169.241c-7.371,0-13.337-6.217-13.337-18.55c0-13.688,7.37-18.351,13.337-18.351
		c5.966,0,13.337,4.663,13.337,18.351C58.19,163.024,52.224,169.241,44.854,169.241z M44.854,160.217
		c3.56,0,3.811-5.365,3.811-9.377c0-4.361-0.652-8.975-3.811-8.975c-3.459,0-3.811,4.614-3.811,8.975
		C41.042,154.852,41.294,160.217,44.854,160.217z"/>
	<path fill="#49BDB2" d="M61.898,141.916h-3.008v-6.919h1.454c2.105,0,4.061-0.801,5.315-2.055h5.515v35.699h-9.276V141.916z"/>
	<path fill="#49BDB2" d="M75.786,132.941h17.849v8.724h-8.824v5.314c0.501-0.101,1.104-0.201,2.006-0.201
		c3.911,0,8.875,2.657,8.875,9.979c0,7.471-4.964,12.483-12.836,12.483c-2.757,0-5.465-0.752-7.671-1.904v-8.324
		c1.705,1.204,3.159,1.906,5.164,1.906c3.109,0,5.214-1.555,5.214-4.362c0-2.807-2.256-4.061-4.963-4.061
		c-1.805,0-3.661,0.752-4.813,1.604V132.941z"/>
</g>
<g>
	<path fill="#49BDB2" d="M108.073,157.108c1.504,1.203,4.412,3.109,7.371,3.109c2.507,0,3.91-0.853,3.91-2.507
		c0-4.362-12.033-2.507-12.033-14.39c0-5.064,3.309-10.98,12.835-10.98c3.209,0,6.869,1.003,7.972,1.855v9.626
		c-2.005-1.504-4.161-2.457-6.217-2.457c-2.156,0-4.061,0.853-4.061,2.607c0,4.512,12.034,1.955,12.034,13.688
		c0,5.265-3.36,11.582-13.388,11.582c-3.81,0-6.468-0.852-8.423-1.955V157.108z"/>
	<path fill="#49BDB2" d="M138.156,132.941h14.74l6.97,35.699h-9.927l-0.903-6.017h-7.02l-0.902,6.017h-9.928L138.156,132.941z
		 M145.576,139.861h-0.1l-2.256,14.741h4.613L145.576,139.861z"/>
	<path fill="#49BDB2" d="M166.933,132.941h14.741l6.97,35.699h-9.928l-0.902-6.017h-7.02l-0.902,6.017h-9.927L166.933,132.941z
		 M174.354,139.861h-0.101l-2.256,14.741h4.612L174.354,139.861z"/>
	<path fill="#49BDB2" d="M190.647,132.941h9.526v26.974h8.323v8.725h-17.85V132.941z"/>
</g>
<rect x="219.521" fill="#333333" width="219.522" height="116.72"/>
<path fill="#49BDB2" d="M219.521,174.738h219.522v-87.09H219.521V174.738z"/>
<g>
	<path fill="#49BDB2" d="M229.329,35.195c4.263-4.713,9.276-11.331,9.276-16.345c0-2.557-1.304-4.613-3.86-4.613
		c-1.956,0-3.761,1.153-4.965,2.307V7.519c2.508-1.002,5.114-2.005,8.726-2.005c7.119,0,10.228,5.365,10.228,10.78
		c0,6.668-3.911,11.883-7.57,16.496h8.222v9.024h-20.056V35.195z"/>
	<path fill="#49BDB2" d="M264.375,42.416c-7.371,0-13.337-6.217-13.337-18.551c0-13.688,7.37-18.351,13.337-18.351
		s13.337,4.663,13.337,18.351C277.712,36.198,271.745,42.416,264.375,42.416z M264.375,33.391c3.56,0,3.811-5.365,3.811-9.376
		c0-4.362-0.652-8.974-3.811-8.974c-3.46,0-3.811,4.612-3.811,8.974C260.564,28.025,260.815,33.391,264.375,33.391z"/>
	<path fill="#49BDB2" d="M281.421,15.09h-3.009V8.17h1.454c2.105,0,4.061-0.802,5.314-2.056h5.516v35.699h-9.275V15.09z"/>
	<path fill="#49BDB2" d="M295.308,6.115h17.85v8.724h-8.825v5.315c0.502-0.1,1.104-0.2,2.006-0.2c3.911,0,8.875,2.657,8.875,9.978
		c0,7.471-4.964,12.484-12.835,12.484c-2.758,0-5.466-0.752-7.672-1.905v-8.323c1.704,1.204,3.158,1.905,5.164,1.905
		c3.109,0,5.215-1.554,5.215-4.362c0-2.808-2.256-4.062-4.964-4.062c-1.805,0-3.66,0.752-4.813,1.605V6.115z"/>
	<path fill="#49BDB2" d="M327.695,30.282c1.504,1.203,4.411,3.108,7.37,3.108c2.507,0,3.91-0.853,3.91-2.507
		c0-4.362-12.032-2.507-12.032-14.389c0-5.064,3.309-10.981,12.835-10.981c3.209,0,6.87,1.003,7.973,1.855v9.626
		c-2.006-1.504-4.162-2.457-6.218-2.457c-2.155,0-4.062,0.852-4.062,2.607c0,4.512,12.034,1.956,12.034,13.688
		c0,5.265-3.359,11.582-13.388,11.582c-3.811,0-6.468-0.852-8.423-1.956V30.282z"/>
	<path fill="#49BDB2" d="M357.777,6.115h14.741l6.969,35.699h-9.928l-0.902-6.017h-7.02l-0.902,6.017h-9.928L357.777,6.115z
		 M365.198,13.034h-0.101l-2.256,14.741h4.613L365.198,13.034z"/>
	<path fill="#49BDB2" d="M386.556,6.115h14.74l6.969,35.699h-9.927l-0.903-6.017h-7.019l-0.903,6.017h-9.927L386.556,6.115z
		 M393.975,13.034h-0.1l-2.256,14.741h4.613L393.975,13.034z"/>
	<path fill="#49BDB2" d="M410.269,6.115h9.526V33.09h8.322v8.724h-17.849V6.115z"/>
</g>
<g>
	<path fill="#49BDB2" d="M230.182,46.166h13.789c7.771,0,11.08,4.512,11.08,9.476c0,3.66-2.006,6.267-5.265,7.32v0.101
		c3.059,0.752,6.218,3.058,6.218,8.423c0,5.114-3.711,10.379-12.385,10.379h-13.438V46.166z M239.708,60.104h2.658
		c2.356,0,3.408-1.203,3.408-2.908c0-2.256-1.503-3.008-4.411-3.008h-1.655V60.104z M239.708,73.541h3.159
		c2.257,0,3.309-1.404,3.309-3.309c0-2.306-1.203-3.209-3.86-3.209h-2.607V73.541z"/>
	<path fill="#49BDB2" d="M258.558,46.166h9.526v35.699h-9.526V46.166z"/>
	<path fill="#49BDB2" d="M271.594,46.166h18.101v8.323h-8.574v5.114h7.521v8.323h-7.521v5.615h8.675v8.323h-18.201V46.166z"/>
	<path fill="#49BDB2" d="M292.751,46.166h10.88l7.02,22.913h0.101V46.166h8.725v35.699h-10.881l-7.019-22.863h-0.101v22.863h-8.725
		V46.166z"/>
	<path fill="#49BDB2" d="M323.133,46.166h10.881l7.02,22.913h0.1V46.166h8.725v35.699h-10.881l-7.019-22.863h-0.101v22.863h-8.725
		V46.166z"/>
	<path fill="#49BDB2" d="M358.579,46.166h14.741l6.97,35.699h-9.928l-0.902-6.017h-7.021l-0.901,6.017h-9.927L358.579,46.166z
		 M366.001,53.084H365.9l-2.257,14.741h4.613L366.001,53.084z"/>
	<path fill="#49BDB2" d="M387.157,46.166h14.741l6.968,35.699h-9.927l-0.903-6.017h-7.019l-0.903,6.017h-9.927L387.157,46.166z
		 M394.577,53.084h-0.1l-2.256,14.741h4.612L394.577,53.084z"/>
	<path fill="#49BDB2" d="M410.671,46.166h9.526V73.14h8.322v8.724h-17.849V46.166z"/>
</g>
<g>
	<path fill="#333333" d="M231.385,101.866h-3.008v-6.918h1.454c2.105,0,4.062-0.802,5.314-2.056h5.516v35.7h-9.276V101.866z"/>
	<path fill="#333333" d="M265.027,92.891v5.766l-10.078,29.934h-9.878l9.928-26.975h-9.777v-8.725H265.027z"/>
	<path fill="#333333" d="M265.879,119.064c2.607,0,4.763,2.155,4.763,4.762c0,2.608-2.155,4.764-4.763,4.764
		s-4.764-2.156-4.764-4.764C261.115,121.22,263.271,119.064,265.879,119.064z"/>
	<path fill="#333333" d="M271.343,110.791h25.069v7.22h-25.069V110.791z"/>
	<path fill="#333333" d="M290.444,110.791h25.069v7.22h-25.069V110.791z"/>
	<path fill="#333333" d="M319.323,118.612c1.153,0.853,2.858,1.855,5.215,1.855c2.457,0,4.613-1.253,4.613-3.56
		c0-2.758-2.959-3.36-5.266-3.36c-0.752,0-1.554,0.051-2.356,0.151v-6.369c0.552,0.15,1.153,0.201,1.855,0.201
		c1.654,0,5.215-0.652,5.215-3.61c0-1.604-1.104-2.908-3.31-2.908c-2.156,0-4.062,0.801-5.716,2.006v-8.524
		c2.105-1.103,5.415-2.206,8.824-2.206c5.113,0,9.728,3.059,9.728,9.476c0,3.51-1.204,6.418-4.864,8.474
		c4.262,2.056,5.717,4.713,5.717,8.223c0,5.816-4.563,10.729-11.583,10.729c-2.908,0-5.967-1.002-8.072-2.005V118.612z"/>
	<path fill="#333333" d="M352.715,129.191c-7.37,0-13.337-6.217-13.337-18.551c0-13.688,7.37-18.351,13.337-18.351
		c5.966,0,13.337,4.663,13.337,18.351C366.052,122.974,360.086,129.191,352.715,129.191z M352.715,120.167
		c3.56,0,3.81-5.365,3.81-9.376c0-4.362-0.651-8.976-3.81-8.976c-3.46,0-3.811,4.614-3.811,8.976
		C348.904,114.802,349.154,120.167,352.715,120.167z"/>
	<path fill="#333333" d="M371.015,119.064c2.606,0,4.763,2.155,4.763,4.762c0,2.608-2.156,4.764-4.763,4.764
		c-2.607,0-4.764-2.156-4.764-4.764C366.251,121.22,368.407,119.064,371.015,119.064z"/>
	<path fill="#333333" d="M388.311,129.191c-7.371,0-13.337-6.217-13.337-18.551c0-13.688,7.37-18.351,13.337-18.351
		s13.338,4.663,13.338,18.351C401.648,122.974,395.681,129.191,388.311,129.191z M388.311,120.167c3.56,0,3.812-5.365,3.812-9.376
		c0-4.362-0.653-8.976-3.812-8.976c-3.46,0-3.811,4.614-3.811,8.976C384.5,114.802,384.751,120.167,388.311,120.167z"/>
	<path fill="#333333" d="M416.085,92.29c8.174,0,12.636,3.86,12.636,9.978c0,3.209-1.203,6.417-5.766,7.821v0.101
		c4.513,0.752,6.117,4.663,6.117,8.473c0,5.215-3.41,10.529-12.987,10.529c-9.575,0-12.984-5.314-12.984-10.529
		c0-3.811,1.604-7.721,6.116-8.473v-0.101c-4.562-1.404-5.766-4.612-5.766-7.821C403.451,96.15,407.914,92.29,416.085,92.29z
		 M416.085,113.548c-2.457,0-3.458,1.805-3.458,3.912c0,1.905,0.901,3.709,3.458,3.709c2.559,0,3.461-1.804,3.461-3.709
		C419.546,115.354,418.542,113.548,416.085,113.548z M416.085,107.532c1.906,0,3.359-1.354,3.359-3.86
		c0-1.656-1.002-3.36-3.359-3.36c-2.457,0-3.358,1.705-3.358,3.36C412.727,106.178,414.181,107.532,416.085,107.532z"/>
</g>
<g>
	<path fill="#333333" d="M229.329,162.022c4.263-4.713,9.276-11.331,9.276-16.346c0-2.557-1.304-4.613-3.86-4.613
		c-1.956,0-3.761,1.154-4.965,2.308v-9.026c2.508-1.002,5.114-2.005,8.726-2.005c7.119,0,10.228,5.365,10.228,10.779
		c0,6.669-3.911,11.883-7.57,16.495h8.222v9.026h-20.056V162.022z"/>
	<path fill="#333333" d="M264.375,169.241c-7.371,0-13.337-6.217-13.337-18.55c0-13.688,7.37-18.351,13.337-18.351
		s13.337,4.663,13.337,18.351C277.712,163.024,271.745,169.241,264.375,169.241z M264.375,160.217c3.56,0,3.811-5.365,3.811-9.377
		c0-4.361-0.652-8.975-3.811-8.975c-3.46,0-3.811,4.614-3.811,8.975C260.564,154.852,260.815,160.217,264.375,160.217z"/>
	<path fill="#333333" d="M281.421,141.916h-3.009v-6.919h1.454c2.105,0,4.061-0.801,5.314-2.055h5.516v35.699h-9.275V141.916z"/>
	<path fill="#333333" d="M295.308,132.941h17.85v8.724h-8.825v5.314c0.502-0.101,1.104-0.201,2.006-0.201
		c3.911,0,8.875,2.657,8.875,9.979c0,7.471-4.964,12.483-12.835,12.483c-2.758,0-5.466-0.752-7.672-1.904v-8.324
		c1.704,1.204,3.158,1.906,5.164,1.906c3.109,0,5.215-1.555,5.215-4.362c0-2.807-2.256-4.061-4.964-4.061
		c-1.805,0-3.66,0.752-4.813,1.604V132.941z"/>
</g>
<g>
	<path fill="#333333" d="M327.595,157.108c1.504,1.203,4.412,3.109,7.371,3.109c2.506,0,3.91-0.853,3.91-2.507
		c0-4.362-12.033-2.507-12.033-14.39c0-5.064,3.31-10.98,12.836-10.98c3.209,0,6.868,1.003,7.972,1.855v9.626
		c-2.006-1.504-4.161-2.457-6.218-2.457c-2.155,0-4.061,0.853-4.061,2.607c0,4.512,12.034,1.955,12.034,13.688
		c0,5.265-3.36,11.582-13.389,11.582c-3.81,0-6.468-0.852-8.423-1.955V157.108z"/>
	<path fill="#333333" d="M357.678,132.941h14.74l6.97,35.699h-9.928l-0.902-6.017h-7.02l-0.902,6.017h-9.928L357.678,132.941z
		 M365.098,139.861h-0.1l-2.257,14.741h4.612L365.098,139.861z"/>
	<path fill="#333333" d="M386.455,132.941h14.74l6.97,35.699h-9.928l-0.902-6.017h-7.02l-0.902,6.017h-9.928L386.455,132.941z
		 M393.875,139.861h-0.1l-2.257,14.741h4.612L393.875,139.861z"/>
	<path fill="#333333" d="M410.169,132.941h9.526v26.974h8.322v8.725h-17.849V132.941z"/>
</g>
</svg>
