<?xml version="1.0" encoding="utf-8"?>
<!-- Generator: Adobe Illustrator 15.1.0, SVG Export Plug-In . SVG Version: 6.00 Build 0)  -->
<!DOCTYPE svg PUBLIC "-//W3C//DTD SVG 1.1//EN" "http://www.w3.org/Graphics/SVG/1.1/DTD/svg11.dtd">
<svg version="1.1" id="Layer_1" xmlns="http://www.w3.org/2000/svg" xmlns:xlink="http://www.w3.org/1999/xlink" x="0px" y="0px"
	 width="63.525px" height="63.448px" viewBox="0.284 -0.198 63.525 63.448" enable-background="new 0.284 -0.198 63.525 63.448"
	 xml:space="preserve">
<polygon points="26.948,-0.198 0.284,26.573 0.284,63.25 36.96,63.25 63.732,36.586 26.948,36.586 "/>
<path d="M57.891,33.479h5.919v-2.892h-2.762v-8.942h-3.157V33.479z M53.109,28.826H51.58l0.747-4.889h0.032L53.109,28.826z
	 M47.59,33.479h3.292l0.3-1.994h2.327l0.298,1.994h3.292l-2.31-11.834h-4.889L47.59,33.479z M42.985,28.826h-1.53l0.748-4.889h0.032
	L42.985,28.826z M37.466,33.479h3.289l0.3-1.994h2.328l0.297,1.994h3.292l-2.31-11.834h-4.888L37.466,33.479z M30.063,33.031
	c0.649,0.365,1.531,0.648,2.793,0.648c3.326,0,4.44-2.095,4.44-3.84c0-3.889-3.99-3.041-3.99-4.538c0-0.581,0.631-0.864,1.347-0.864
	c0.682,0,1.396,0.316,2.062,0.815v-3.191c-0.367-0.283-1.58-0.614-2.644-0.614c-3.157,0-4.256,1.961-4.256,3.64
	c0,3.939,3.99,3.326,3.99,4.771c0,0.549-0.466,0.832-1.296,0.832c-0.982,0-1.945-0.632-2.446-1.03L30.063,33.031L30.063,33.031z"/>
<path d="M61.458,18.782h2.151v-8.07h-2.151V18.782z M57.02,12.526c0.703,0.012,1.609,0.091,1.609,2.074
	c0,1.824-0.759,2.143-1.225,2.143H57.02V12.526z M54.867,18.782h2.459c2.686,0,3.592-2.087,3.592-4.125
	c0-1.791-0.657-3.944-3.32-3.944h-2.729L54.867,18.782L54.867,18.782z M50.233,18.782h4.035V16.81h-1.88v-6.097h-2.155V18.782z
	 M47.283,18.782h2.151v-8.07h-2.151V18.782z M43.819,15.643h0.807v0.533c0,0.419-0.229,0.703-0.771,0.703
	c-0.78,0-1.088-0.771-1.088-2.019c0-1.428,0.577-2.312,1.679-2.312c0.556,0,1.121,0.261,1.405,0.579v-2.21
	c-0.397-0.193-0.965-0.34-1.768-0.34c-2.278,0-3.536,1.836-3.536,4.158c0,2.482,0.974,4.183,3.195,4.183
	c1.901,0,2.854-1.132,2.854-2.798v-2.108h-2.777V15.643z"/>
<path d="M61.458,7.914h2.151v-8.07h-2.151V7.914z M57.378,7.914h2.152V1.725h1.384v-1.881h-4.919v1.881h1.383V7.914z M49.808,5.24
	c0,2.13,1.28,2.811,2.812,2.811c1.53,0,2.811-0.68,2.811-2.811v-5.396h-2.152V5.24c0,0.452-0.158,0.771-0.657,0.771
	s-0.66-0.318-0.66-0.771v-5.396h-2.152V5.24z M42.998,7.914h1.971V2.746h0.022l1.587,5.168h2.459v-8.07h-1.972v5.18h-0.021
	l-1.587-5.18h-2.459V7.914z M39.927,4.741h-1.042l0.51-3.332h0.022L39.927,4.741z M36.163,7.914h2.245l0.202-1.361h1.588
	l0.202,1.361h2.245l-1.576-8.07h-3.332L36.163,7.914z M30.063,7.914h2.155V3.879h0.022l1.394,4.035h2.334l-1.676-4.331l1.608-3.739
	H33.69L32.24,3.528h-0.022v-3.684h-2.155V7.914z"/>
</svg>
