<?xml version="1.0" encoding="utf-8"?>
<!-- Generator: Adobe Illustrator 15.1.0, SVG Export Plug-In . SVG Version: 6.00 Build 0)  -->
<!DOCTYPE svg PUBLIC "-//W3C//DTD SVG 1.1//EN" "http://www.w3.org/Graphics/SVG/1.1/DTD/svg11.dtd">
<svg version="1.1" id="Layer_1" xmlns="http://www.w3.org/2000/svg" xmlns:xlink="http://www.w3.org/1999/xlink" x="0px" y="0px"
	 width="63.804px" height="63.728px" viewBox="0.135 -0.198 63.804 63.728" enable-background="new 0.135 -0.198 63.804 63.728"
	 xml:space="preserve">
<polygon points="26.916,-0.198 0.135,26.691 0.135,63.53 36.973,63.53 63.863,36.749 26.916,36.749 "/>
<path d="M57.995,33.628h5.943v-2.905h-2.771v-8.981h-3.173V33.628z M53.193,28.954h-1.535l0.752-4.908h0.031L53.193,28.954z
	 M47.651,33.628h3.307l0.301-2.003h2.337l0.3,2.003h3.307l-2.32-11.887h-4.908L47.651,33.628z M43.023,28.954h-1.536l0.751-4.908
	h0.034L43.023,28.954z M37.48,33.628h3.306l0.301-2.003h2.337l0.301,2.003h3.305l-2.319-11.887H39.8L37.48,33.628z M30.047,33.178
	c0.651,0.367,1.536,0.651,2.805,0.651c3.338,0,4.458-2.104,4.458-3.857c0-3.906-4.007-3.055-4.007-4.558
	c0-0.584,0.634-0.868,1.352-0.868c0.686,0,1.402,0.316,2.071,0.818v-3.206c-0.368-0.284-1.586-0.618-2.655-0.618
	c-3.172,0-4.272,1.971-4.272,3.657c0,3.956,4.007,3.339,4.007,4.792c0,0.551-0.468,0.835-1.302,0.835
	c-0.986,0-1.954-0.636-2.455-1.035L30.047,33.178L30.047,33.178z"/>
<path d="M61.578,18.866h2.163v-8.105h-2.163V18.866z M57.121,12.583c0.706,0.011,1.616,0.091,1.616,2.083
	c0,1.832-0.764,2.15-1.229,2.15h-0.387V12.583z M54.959,18.866h2.47c2.697,0,3.608-2.096,3.608-4.145
	c0-1.798-0.66-3.961-3.336-3.961h-2.742V18.866z M50.305,18.866h4.053v-1.981h-1.89v-6.124h-2.163V18.866z M47.341,18.866h2.162
	v-8.105h-2.162V18.866z M43.863,15.713h0.809v0.535c0,0.421-0.228,0.706-0.773,0.706c-0.785,0-1.094-0.774-1.094-2.026
	c0-1.435,0.582-2.323,1.687-2.323c0.558,0,1.127,0.263,1.411,0.581v-2.22c-0.398-0.194-0.968-0.342-1.775-0.342
	c-2.287,0-3.552,1.844-3.552,4.178c0,2.493,0.979,4.2,3.21,4.2c1.911,0,2.867-1.138,2.867-2.812v-2.116h-2.788L43.863,15.713
	L43.863,15.713z"/>
<path d="M61.579,7.95h2.162v-8.104h-2.162V7.95z M57.481,7.95h2.163V1.734h1.39v-1.889h-4.939v1.889h1.388L57.481,7.95L57.481,7.95z
	 M49.877,5.264c0,2.14,1.286,2.823,2.823,2.823c1.535,0,2.822-0.684,2.822-2.823v-5.418H53.36v5.418
	c0,0.455-0.158,0.774-0.659,0.774s-0.66-0.319-0.66-0.774v-5.418h-2.163V5.264z M43.037,7.95h1.979V2.76h0.022l1.595,5.19h2.47
	v-8.104h-1.979v5.202H47.1l-1.593-5.202h-2.47V7.95z M39.952,4.763h-1.048l0.513-3.347h0.021L39.952,4.763z M36.174,7.95h2.253
	l0.205-1.366h1.594L40.43,7.95h2.255l-1.582-8.104h-3.347L36.174,7.95z M30.047,7.95h2.162V3.897h0.023l1.399,4.053h2.345
	l-1.684-4.349l1.616-3.756h-2.221l-1.456,3.699h-0.023v-3.699h-2.162V7.95z"/>
</svg>
